<?xml version="1.0" encoding="UTF-8"?>
<svg width="180" height="180" viewBox="0 0 180 180" fill="none" xmlns="http://www.w3.org/2000/svg">
  <rect width="180" height="180" rx="40" fill="#2563EB"/>
  <path d="M45 67.5C45 61.1487 50.1487 56 56.5 56H78.75C85.1013 56 90.25 61.1487 90.25 67.5V112.5C90.25 118.851 85.1013 124 78.75 124H56.5C50.1487 124 45 118.851 45 112.5V67.5Z" fill="white"/>
  <path d="M101.25 45C101.25 38.6487 106.399 33.5 112.75 33.5H135C141.351 33.5 146.5 38.6487 146.5 45V135C146.5 141.351 141.351 146.5 135 146.5H112.75C106.399 146.5 101.25 141.351 101.25 135V45Z" fill="white"/>
  <circle cx="67.625" cy="90" r="11.25" fill="#2563EB"/>
  <circle cx="123.875" cy="90" r="11.25" fill="#2563EB"/>
</svg>
